<?xml version="1.0" encoding="UTF-8"?>
<svg xmlns="http://www.w3.org/2000/svg" viewBox="0 0 1600 1600">
  <defs>
    <style>
      .cls-1, .cls-2 {
        fill: none;
        stroke: #08558c;
        stroke-miterlimit: 10;
        stroke-width: 30px;
      }

      .cls-2 {
        stroke-linecap: round;
      }

      .cls-3 {
        fill: #08558c;
      }
    </style>
  </defs>
  <g id="cricle">
    <path class="cls-3" d="M800,61c2.767,0,5.065,.012,7.233,.037h.047s.047,.001,.047,.001c65.067,.629,129.542,9.727,191.632,27.039,60.235,16.795,118.247,41.312,172.417,72.863,31.724,18.487,62.342,39.528,90.99,62.529,11.08,8.901,22.017,18.215,32.509,27.683,35.268,31.823,67.616,67.193,96.144,105.127,28.727,38.198,53.818,79.313,74.575,122.202,21.22,43.847,38.109,89.943,50.2,137.012,6.606,25.71,11.87,52.078,15.646,78.387,5.017,34.872,7.561,70.576,7.561,106.12,0,94.303-17.504,186.134-52.026,272.941-33.352,83.865-81.386,160.246-142.769,227.023-124.869,135.841-294.411,219.674-477.442,236.06-4.302,.389-8.312,.713-12.256,.988l-.1,.007-.1,.007c-12.282,.907-24.89,1.504-37.475,1.776h-.049s-.049,.002-.049,.002c-5.532,.13-11.162,.196-16.734,.196-4.915,0-9.893-.047-14.796-.14-12.613-.253-25.251-.824-37.564-1.695l-.085-.006-.085-.006c-4.289-.289-8.745-.639-13.607-1.068-64.469-5.712-127.836-19.861-188.34-42.053-58.932-21.615-115.047-50.809-166.781-86.765-42.72-29.701-82.42-64.01-118.008-101.988-38.892-41.477-72.988-87.432-101.342-136.591-41.897-72.637-70.85-151.198-86.056-233.516-1.823-9.854-3.451-19.775-4.842-29.519-.391-2.729-.725-5.148-1.021-7.396l-.004-.028-.004-.028c-1.232-9.283-2.297-18.668-3.167-27.911-2.189-23.185-3.299-46.834-3.299-70.291,0-2.016,.009-4.023,.028-6.039l.002-.231v-.23c0-.522,.008-1.044,.016-1.602v-.072s.002-.072,.002-.072c.083-8.051,.306-16.283,.665-24.483,.043-.997,.086-1.986,.138-2.974l.007-.131,.006-.132c.391-8.249,.928-16.576,1.599-24.748l.003-.034,.002-.034,.145-1.793c.151-1.804,.311-3.608,.471-5.414,.176-1.986,.372-3.973,.565-5.936,.047-.479,.093-.958,.147-1.438l.033-.298,.03-.299c.178-1.773,.366-3.546,.554-5.319,.23-2.108,.476-4.209,.723-6.316l.031-.269,.043-.362c.246-2.057,.493-4.122,.756-6.178,.247-1.897,.493-3.785,.749-5.673l.035-.255,.033-.261c.031-.238,.066-.475,.1-.712,.051-.357,.102-.714,.151-1.073l.012-.085,.011-.085c.236-1.76,.491-3.511,.745-5.262,.461-3.141,.941-6.279,1.427-9.33l.006-.036,.006-.036c.365-2.317,.676-4.212,.977-5.964l.019-.108,.018-.108c.346-2.066,.701-4.122,1.065-6.187l.01-.054,.009-.054c.216-1.239,.439-2.471,.662-3.708l.11-.606c.092-.512,.188-1.023,.283-1.535,.109-.591,.219-1.182,.326-1.773,.36-1.917,.73-3.834,1.108-5.742l.033-.164,.031-.164c.144-.752,.296-1.504,.447-2.257l.259-1.295,.271-1.327c.186-.914,.372-1.827,.566-2.744l.014-.065,.013-.065c.299-1.428,.597-2.856,.905-4.284l.1-.461,.096-.492c.066-.324,.141-.644,.212-.965l.015-.068,.015-.068,.087-.393c.167-.753,.331-1.501,.489-2.247,.236-1.092,.48-2.175,.719-3.23,.343-1.513,.686-3.026,1.039-4.53l.067-.286,.05-.226,.056-.24c.048-.205,.096-.409,.142-.611,.449-1.889,.898-3.778,1.346-5.625,.446-1.831,.892-3.662,1.347-5.483l.053-.208,.157-.622h0c.694-2.755,1.415-5.538,2.145-8.274l.044-.167,.044-.167c.234-.902,.477-1.795,.719-2.689l.35-1.293,.035-.162c.365-1.355,.737-2.702,1.113-4.054,.078-.275,.155-.55,.229-.827,.194-.691,.389-1.377,.583-2.063l.387-1.368c.607-2.154,1.166-4.089,1.708-5.916l.052-.175,.051-.175,.129-.442,.101-.324,.116-.394c.508-1.733,1.025-3.466,1.551-5.189l.106-.346,.06-.181,.229-.768c.213-.716,.432-1.438,.659-2.147l.081-.253,.078-.254c3.475-11.258,7.3-22.631,11.378-33.831,1.371-3.773,2.763-7.514,4.139-11.124,.505-1.314,1.011-2.628,1.525-3.942l.088-.223,.085-.224c.401-1.054,.856-2.202,1.288-3.286l.083-.208,.081-.208c.497-1.28,1.043-2.638,1.558-3.915l.012-.028,.011-.028c27.57-68.489,65.265-132.396,112.034-189.941,78.829-96.965,181.411-172.879,296.653-219.533,73.682-29.825,151.495-47.425,231.273-52.311,15.146-.927,30.578-1.397,45.866-1.397m0-50c-16.43,0-32.74,.5-48.92,1.49-86.87,5.32-169.95,24.69-246.98,55.87-124.52,50.41-233.24,131.69-316.69,234.34-49.39,60.77-89.92,129.03-119.62,202.81-.61,1.51-1.22,3.03-1.81,4.55-.53,1.33-1.06,2.67-1.57,4.01-.56,1.43-1.11,2.86-1.66,4.29-1.51,3.96-2.99,7.94-4.44,11.93-4.34,11.92-8.4,23.98-12.16,36.16-.33,1.03-.65,2.08-.96,3.12-.11,.33-.21,.65-.3,.98-.58,1.9-1.15,3.81-1.71,5.72-.14,.45-.27,.9-.4,1.35-.65,2.19-1.28,4.38-1.9,6.58-.37,1.31-.74,2.61-1.11,3.93-.02,.06-.03,.13-.05,.19-.53,1.9-1.05,3.79-1.56,5.7-.04,.14-.08,.29-.11,.43-.29,1.07-.58,2.14-.86,3.22-.8,3-1.58,6.01-2.34,9.03-.07,.28-.14,.55-.21,.83-.48,1.92-.95,3.85-1.42,5.78-.49,2.02-.97,4.04-1.45,6.06-.1,.44-.21,.89-.31,1.34-.38,1.62-.75,3.25-1.12,4.88-.29,1.28-.58,2.57-.86,3.87-.16,.76-.33,1.52-.5,2.29-.17,.76-.34,1.52-.49,2.29-.33,1.53-.65,3.06-.97,4.59-.32,1.51-.62,3.01-.93,4.52-.27,1.36-.55,2.72-.81,4.08-.42,2.12-.83,4.25-1.23,6.38-.21,1.16-.43,2.32-.64,3.48-.28,1.55-.56,3.09-.83,4.64-.39,2.21-.77,4.41-1.14,6.62-.38,2.21-.74,4.43-1.09,6.65-.53,3.33-1.04,6.67-1.53,10.01-.28,1.93-.56,3.86-.82,5.8-.11,.8-.23,1.59-.33,2.39-.27,1.99-.53,3.98-.79,5.98-.3,2.34-.58,4.69-.86,7.03-.28,2.39-.56,4.77-.82,7.16-.2,1.89-.4,3.78-.59,5.67-.08,.71-.15,1.42-.22,2.13-.21,2.14-.42,4.28-.61,6.42-.17,1.91-.34,3.83-.5,5.75-.05,.62-.1,1.24-.15,1.86-.72,8.78-1.29,17.6-1.71,26.47-.06,1.14-.11,2.28-.16,3.43-.38,8.68-.62,17.39-.71,26.14-.01,.76-.02,1.51-.02,2.26-.02,2.17-.03,4.33-.03,6.5,0,25.29,1.19,50.31,3.52,74.99,.94,9.99,2.07,19.92,3.38,29.79,.35,2.66,.72,5.32,1.1,7.97,1.51,10.58,3.24,21.09,5.17,31.52,16.5,89.32,48.05,173.36,91.91,249.4,30.43,52.76,66.79,101.67,108.18,145.81,37.98,40.53,80.2,77.04,125.94,108.84,109.45,76.07,239.08,125.15,379.25,137.57,4.87,.43,9.76,.82,14.66,1.15,13.28,.94,26.65,1.54,40.09,1.81,5.26,.1,10.52,.15,15.8,.15,5.99,0,11.96-.07,17.91-.21,13.45-.29,26.81-.92,40.08-1.9,4.44-.31,8.86-.67,13.28-1.07,402.35-36.02,717.73-374.09,717.73-785.82,0-38.45-2.75-76.26-8.07-113.24-4.08-28.42-9.68-56.35-16.71-83.71-13.09-50.96-31.15-99.92-53.62-146.35-44.7-92.36-106.88-174.68-182.23-242.67-11.27-10.17-22.84-20.02-34.69-29.54-30.59-24.56-63.05-46.89-97.13-66.75C1082.14,51.1,949.44,12.41,807.81,11.04c-2.6-.03-5.2-.04-7.81-.04h0Z"/>
  </g>
  <g id="Easy_Maintenance" data-name="Easy Maintenance">
    <path class="cls-2" d="M586.71,545.58c57.69-48.43,132.09-77.58,213.29-77.58,183.36,0,332,148.64,332,332s-148.64,332-332,332-332-148.64-332-332c0-75.1,24.94-144.38,66.99-200.01"/>
    <path class="cls-1" d="M407.688,558.015l-57.812-80.811c-6.251-8.738-5.165-20.734,2.553-28.207l100.026-96.851c7.324-7.091,18.597-8.127,27.09-2.487l95.034,63.101h.01c33.18-19.358,69.072-34.579,106.976-44.935,8.346-2.28,14.55-9.281,15.778-17.846l14.833-103.485c1.524-10.634,10.603-18.551,21.346-18.615l139.236-.826c10.195-.06,19.056,6.986,21.293,16.932l25.3,112.473c1.698,7.55,7.292,13.62,14.677,15.933,30.036,9.404,58.711,21.892,85.651,37.083,7.251,4.089,16.19,3.716,23.038-1.017l95.173-65.778c8.838-6.108,20.815-4.828,28.162,3.01l95.216,101.582c6.972,7.438,7.824,18.726,2.048,27.126l-65.267,94.926c-4.555,6.626-5.083,15.232-1.338,22.347,13.507,25.66,24.589,52.785,32.951,81.082,2.181,7.38,8.192,12.998,15.685,14.753l120.84,28.31c10.46,2.451,17.551,12.188,16.673,22.895l-11.384,138.766c-.834,10.161-8.629,18.37-18.733,19.727l-104.989,14.101c-8.511,1.143-15.514,7.208-17.939,15.446-8.798,29.89-20.631,58.476-35.138,85.41-3.766,6.993-3.432,15.477,.899,22.135l68.287,104.955c5.859,9.005,4.244,20.942-3.796,28.067l-104.209,92.341c-7.631,6.762-18.94,7.297-27.175,1.287l-90.708-66.195c-6.804-4.965-15.854-5.522-23.243-1.478-27.865,15.251-57.524,27.622-88.585,36.716-8.004,2.343-13.97,9.043-15.334,17.27l-18.464,111.298c-1.758,10.599-11.009,18.314-21.751,18.14l-139.21-2.247c-10.193-.165-18.897-7.404-20.914-17.397l-22.376-110.818c-1.593-7.89-7.429-14.235-15.149-16.513-29.917-8.829-58.533-20.699-85.483-35.255-7.212-3.895-15.993-3.434-22.725,1.242l-86.698,60.217c-8.823,6.128-20.803,4.876-28.168-2.945l-95.454-101.36c-6.989-7.422-7.868-18.709-2.111-27.122l56.118-82.022c4.666-6.819,5.047-15.693,.99-22.892-16.8-29.816-30.285-61.757-39.955-95.313-2.315-8.033-9.038-14.021-17.285-15.389l-101.735-16.875c-10.599-1.758-18.314-11.009-18.141-21.751l2.247-139.209c.165-10.193,7.404-18.897,17.397-20.914l101.356-20.465c7.901-1.595,14.268-7.441,16.521-15.181,9.544-32.785,22.739-64.014,39.123-93.22,4.121-7.345,3.642-16.403-1.258-23.253Z"/>
    <path class="cls-1" d="M714,727h-59.699c-15.63,0-28.301,12.671-28.301,28.301v170.507c0,15.63,12.671,28.301,28.301,28.301h59.699v-331.809c0-15.63,12.671-28.301,28.301-28.301h34.167c10.825,0,20.638,6.364,25.054,16.247l41.992,93.995c4.554,10.194,14.675,16.757,25.84,16.757h87.345c15.63,0,28.301,12.671,28.301,28.301v176.409c0,15.626-12.664,28.295-28.29,28.301l-242.71,.099"/>
  </g>
</svg>